<svg width="30" height="30" viewBox="0 0 30 30" fill="none" xmlns="http://www.w3.org/2000/svg">
<path d="M21.25 2.5H8.75C5.29822 2.5 2.5 5.29822 2.5 8.75V21.25C2.5 24.7018 5.29822 27.5 8.75 27.5H21.25C24.7018 27.5 27.5 24.7018 27.5 21.25V8.75C27.5 5.29822 24.7018 2.5 21.25 2.5Z" stroke="#858688" strokeWidth="2" stroke-linecap="round" stroke-linejoin="round"/>
<path d="M20.0001 14.2129C20.1544 15.2532 19.9767 16.3156 19.4923 17.2491C19.0079 18.1826 18.2416 18.9396 17.3022 19.4125C16.3628 19.8853 15.2982 20.0499 14.2599 19.8828C13.2215 19.7157 12.2623 19.2255 11.5187 18.4818C10.775 17.7382 10.2848 16.779 10.1177 15.7406C9.95063 14.7023 10.1152 13.6377 10.588 12.6983C11.0609 11.7589 11.8179 10.9926 12.7514 10.5082C13.6849 10.0238 14.7473 9.84611 15.7876 10.0004C16.8488 10.1577 17.8312 10.6522 18.5897 11.4108C19.3483 12.1693 19.8428 13.1517 20.0001 14.2129Z" stroke="#858688" strokeWidth="2" stroke-linecap="round" stroke-linejoin="round"/>
<path d="M21.8755 8.125H21.888" stroke="#858688" strokeWidth="2" stroke-linecap="round" stroke-linejoin="round"/>
</svg>
