<svg width="30" height="30" viewBox="0 0 30 30" fill="none" xmlns="http://www.w3.org/2000/svg">
<path d="M20.0005 11.25C21.9896 11.25 23.8973 12.0402 25.3038 13.4467C26.7103 14.8532 27.5005 16.7609 27.5005 18.75V27.5H22.5005V18.75C22.5005 18.087 22.2371 17.4511 21.7683 16.9822C21.2994 16.5134 20.6635 16.25 20.0005 16.25C19.3374 16.25 18.7016 16.5134 18.2327 16.9822C17.7639 17.4511 17.5005 18.087 17.5005 18.75V27.5H12.5005V18.75C12.5005 16.7609 13.2907 14.8532 14.6972 13.4467C16.1037 12.0402 18.0114 11.25 20.0005 11.25V11.25Z" stroke="#858688" strokeWidth="2" stroke-linecap="round" stroke-linejoin="round"/>
<path d="M7.5 12.5H2.5V27.5H7.5V12.5Z" stroke="#858688" strokeWidth="2" stroke-linecap="round" stroke-linejoin="round"/>
<path d="M5 8.75C6.38071 8.75 7.5 7.63071 7.5 6.25C7.5 4.86929 6.38071 3.75 5 3.75C3.61929 3.75 2.5 4.86929 2.5 6.25C2.5 7.63071 3.61929 8.75 5 8.75Z" stroke="#858688" strokeWidth="2" stroke-linecap="round" stroke-linejoin="round"/>
</svg>
