<svg width="20" height="20" viewBox="0 0 20 20" fill="none" xmlns="http://www.w3.org/2000/svg">
<path d="M1.6665 16.6667V7.50001C1.6665 7.05798 1.8421 6.63406 2.15466 6.3215C2.46722 6.00894 2.89114 5.83334 3.33317 5.83334H16.6665C17.1085 5.83334 17.5325 6.00894 17.845 6.3215C18.1576 6.63406 18.3332 7.05798 18.3332 7.50001V16.6667C18.3332 17.1087 18.1576 17.5326 17.845 17.8452C17.5325 18.1577 17.1085 18.3333 16.6665 18.3333H3.33317C2.89114 18.3333 2.46722 18.1577 2.15466 17.8452C1.8421 17.5326 1.6665 17.1087 1.6665 16.6667Z" stroke="#6351A9" strokeWidth="1.5"/>
<path d="M7.08301 2.08334L9.99967 5.00001L12.9163 2.08334" stroke="#6351A9" strokeWidth="1.5" stroke-linecap="round" stroke-linejoin="round"/>
<path d="M13.3335 11.6667L8.3335 14.5534V8.77993L13.3335 11.6667Z" fill="#6351A9"/>
</svg>
