<svg width="30" height="30" viewBox="0 0 30 30" fill="none" xmlns="http://www.w3.org/2000/svg">
<path d="M28.75 3.76257C27.553 4.60692 26.2276 5.25271 24.825 5.67507C24.0722 4.80946 23.0717 4.19593 21.9588 3.91748C20.8459 3.63902 19.6744 3.70906 18.6026 4.11814C17.5308 4.52721 16.6106 5.25557 15.9662 6.20472C15.3219 7.15386 14.9846 8.27799 15 9.42507V10.6751C12.8033 10.732 10.6266 10.2448 8.66376 9.25688C6.70093 8.26892 5.0129 6.81086 3.75 5.01257C3.75 5.01257 -1.25 16.2626 10 21.2626C7.42566 23.01 4.35895 23.8862 1.25 23.7626C12.5 30.0126 26.25 23.7626 26.25 9.38757C26.2489 9.03939 26.2154 8.69206 26.15 8.35007C27.4258 7.09194 28.326 5.50346 28.75 3.76257V3.76257Z" stroke="#858688" strokeWidth="2" stroke-linecap="round" stroke-linejoin="round"/>
</svg>
