<svg viewBox="0 0 1024 1024" xmlns="http://www.w3.org/2000/svg" fill="#ebff57" stroke="#ebff57"><g id="SVGRepo_bgCarrier" stroke-width="0"></g><g id="SVGRepo_tracerCarrier" stroke-linecap="round" stroke-linejoin="round"></g><g id="SVGRepo_iconCarrier"><path fill="#c2d75b" d="M512 64a448 448 0 1 1 0 896 448 448 0 0 1 0-896zm0 832a384 384 0 0 0 0-768 384 384 0 0 0 0 768zm48-176a48 48 0 1 1-96 0 48 48 0 0 1 96 0zm-48-464a32 32 0 0 1 32 32v288a32 32 0 0 1-64 0V288a32 32 0 0 1 32-32z"></path></g></svg>